<?xml version="1.0" encoding="UTF-8"?>
<svg width="61px" height="60px" viewBox="0 0 61 60" version="1.1" xmlns="http://www.w3.org/2000/svg" xmlns:xlink="http://www.w3.org/1999/xlink">
    <!-- Generator: Sketch 53.1 (72631) - https://sketchapp.com -->
    <title>Combined Shape</title>
    <desc>Created with Sketch.</desc>
    <g id="Page-1" stroke="none" stroke-width="1" fill="none" fill-rule="evenodd">
        <g id="Pixel-2-XL" transform="translate(-258.000000, -398.000000)" fill="#FFFFFF" fill-rule="nonzero">
            <g id="Group-2" transform="translate(41.606508, 204.000000)">
                <g id="Group" transform="translate(216.786983, 194.000000)">
                    <path d="M29.9959339,59.9918679 C13.4296371,59.9918679 1.70530257e-13,46.5622308 1.70530257e-13,29.9959339 C1.70530257e-13,13.4296371 13.4296371,-2.84217094e-13 29.9959339,-2.84217094e-13 C46.5622308,-2.84217094e-13 59.9918679,13.4296371 59.9918679,29.9959339 C59.9918679,46.5622308 46.5622308,59.9918679 29.9959339,59.9918679 Z M42.4959339,31.6365589 L42.4959339,28.3553089 L31.6365589,28.3553089 L31.6365589,17.4959339 L28.3553089,17.4959339 L28.3553089,28.3553089 L17.4959339,28.3553089 L17.4959339,31.6365589 L28.3553089,31.6365589 L28.3553089,42.4959339 L31.6365589,42.4959339 L31.6365589,31.6365589 L42.4959339,31.6365589 Z" id="Combined-Shape"></path>
                </g>
            </g>
        </g>
    </g>
</svg>