<?xml version="1.0" encoding="UTF-8"?>
<svg width="108px" height="158px" viewBox="0 0 108 158" version="1.1" xmlns="http://www.w3.org/2000/svg" xmlns:xlink="http://www.w3.org/1999/xlink">
    <!-- Generator: Sketch 53.1 (72631) - https://sketchapp.com -->
    <title>Group 3</title>
    <desc>Created with Sketch.</desc>
    <g id="Page-1" stroke="none" stroke-width="1" fill="none" fill-rule="evenodd">
        <g id="Pixel-2-XL" transform="translate(-126.000000, -251.000000)">
            <g id="Group-2" transform="translate(126.000000, 161.000000)">
                <g id="Group-3" transform="translate(-0.000000, 90.773810)">
                    <path d="M54.6863316,2.80738453 L107.477679,159.22619 L8.52651283e-14,159.22619 L52.791347,2.80738453 C52.9679559,2.28409899 53.5353324,2.00306203 54.0586179,2.1796709 C54.3543515,2.27948099 54.5865215,2.51165092 54.6863316,2.80738453 Z" id="Triangle" fill="#B48080" transform="translate(53.738839, 79.613095) rotate(180.000000) translate(-53.738839, -79.613095) "></path>
                    <path d="M23.0018889,0.68034979 L75.3999256,155.933792 L-3.55271368e-14,147.414092 L21.0645685,0.857860158 C21.1431411,0.311193174 21.6499979,-0.0682723004 22.1966649,0.0103002994 C22.5699441,0.0639518305 22.8812955,0.323036041 23.0018889,0.68034979 Z" id="Triangle" fill="#AA7777" transform="translate(37.699963, 77.966896) rotate(180.000000) translate(-37.699963, -77.966896) "></path>
                </g>
            </g>
        </g>
    </g>
</svg>