<?xml version="1.0" encoding="UTF-8"?>
<svg width="61px" height="60px" viewBox="0 0 61 60" version="1.1" xmlns="http://www.w3.org/2000/svg" xmlns:xlink="http://www.w3.org/1999/xlink">
    <!-- Generator: Sketch 53.1 (72631) - https://sketchapp.com -->
    <title>Combined Shape</title>
    <desc>Created with Sketch.</desc>
    <g id="Page-1" stroke="none" stroke-width="1" fill="none" fill-rule="evenodd">
        <g id="Pixel-2-XL" transform="translate(-258.000000, -204.000000)" fill="#FFFFFF" fill-rule="nonzero">
            <g id="Group-2" transform="translate(41.606508, 204.000000)">
                <g id="Group" transform="translate(216.786983, 0.000000)">
                    <path d="M29.9959339,59.9918679 C13.4296371,59.9918679 8.52651283e-14,46.5622308 8.52651283e-14,29.9959339 C8.52651283e-14,13.4296371 13.4296371,-1.42108547e-13 29.9959339,-1.42108547e-13 C46.5622308,-1.42108547e-13 59.9918679,13.4296371 59.9918679,29.9959339 C59.9918679,46.5622308 46.5622308,59.9918679 29.9959339,59.9918679 Z M29.9959339,43.3559339 C27.5959219,43.3559339 25.3559443,42.7426067 23.2759339,41.5159339 C21.2492571,40.3425947 19.6492731,38.7426107 18.4759339,36.7159339 C17.2492611,34.6359235 16.6359339,32.3959459 16.6359339,29.9959339 C16.6359339,29.3825975 16.6626003,28.9159355 16.7159339,28.5959339 C18.6892771,27.7425963 20.4359263,26.5292751 21.9559339,24.9559339 C23.4759415,23.3825927 24.6492631,21.5959439 25.4759339,19.5959339 C27.0226083,21.7826115 28.9692555,23.4892611 31.3159339,24.7159339 C33.7159459,25.9959403 36.3025867,26.6359339 39.0759339,26.6359339 C40.5959415,26.6359339 41.8359291,26.5026019 42.7959339,26.2359339 C43.1692691,27.5959407 43.3559339,28.8492615 43.3559339,29.9959339 C43.3559339,32.3959459 42.7426067,34.6359235 41.5159339,36.7159339 C40.3425947,38.7426107 38.7426107,40.3425947 36.7159339,41.5159339 C34.6359235,42.7426067 32.3959459,43.3559339 29.9959339,43.3559339 Z M29.9959339,13.3559339 C26.9825855,13.3559339 24.1826135,14.1159263 21.5959339,15.6359339 C19.0892547,17.1026079 17.1026079,19.0892547 15.6359339,21.5959339 C14.1159263,24.1826135 13.3559339,26.9825855 13.3559339,29.9959339 C13.3559339,33.0092823 14.1159263,35.8092543 15.6359339,38.3959339 C17.0759411,40.9026131 19.0492547,42.8892599 21.5559339,44.3559339 C24.1426135,45.8759415 26.9559187,46.6359339 29.9959339,46.6359339 C33.0359491,46.6359339 35.8492543,45.8759415 38.4359339,44.3559339 C40.9426131,42.9159267 42.9159267,40.9426131 44.3559339,38.4359339 C45.8759415,35.8492543 46.6359339,33.0359491 46.6359339,29.9959339 C46.6359339,26.9559187 45.8759415,24.1426135 44.3559339,21.5559339 C42.9159267,19.0492547 40.9426131,17.0759411 38.4359339,15.6359339 C35.8492543,14.1159263 33.0359491,13.3559339 29.9959339,13.3559339 Z M34.9959339,29.5959339 C34.4092643,29.5959339 33.9092693,29.7892653 33.4959339,30.1759339 C33.0825985,30.5626025 32.8759339,31.0492643 32.8759339,31.6359339 C32.8759339,32.2226035 33.0825985,32.7225985 33.4959339,33.1359339 C33.9092693,33.5492693 34.4092643,33.7559339 34.9959339,33.7559339 C35.5826035,33.7559339 36.0825985,33.5492693 36.4959339,33.1359339 C36.9092693,32.7225985 37.1159339,32.2226035 37.1159339,31.6359339 C37.1159339,31.0492643 36.9092693,30.5626025 36.4959339,30.1759339 C36.0825985,29.7892653 35.5826035,29.5959339 34.9959339,29.5959339 Z M24.9959339,29.5959339 C24.4092643,29.5959339 23.9092693,29.7892653 23.4959339,30.1759339 C23.0825985,30.5626025 22.8759339,31.0492643 22.8759339,31.6359339 C22.8759339,32.2226035 23.0825985,32.7225985 23.4959339,33.1359339 C23.9092693,33.5492693 24.4092643,33.7559339 24.9959339,33.7559339 C25.5826035,33.7559339 26.0825985,33.5492693 26.4959339,33.1359339 C26.9092693,32.7225985 27.1159339,32.2226035 27.1159339,31.6359339 C27.1159339,31.0492643 26.9092693,30.5626025 26.4959339,30.1759339 C26.0825985,29.7892653 25.5826035,29.5959339 24.9959339,29.5959339 Z" id="Combined-Shape"></path>
                </g>
            </g>
        </g>
    </g>
</svg>