<?xml version="1.0" encoding="UTF-8"?>
<svg width="60px" height="60px" viewBox="0 0 60 60" version="1.1" xmlns="http://www.w3.org/2000/svg" xmlns:xlink="http://www.w3.org/1999/xlink">
    <!-- Generator: Sketch 53.1 (72631) - https://sketchapp.com -->
    <title>Combined Shape</title>
    <desc>Created with Sketch.</desc>
    <g id="Page-1" stroke="none" stroke-width="1" fill="none" fill-rule="evenodd">
        <g id="Pixel-2-XL" transform="translate(-150.000000, -301.000000)" fill="#FFFFFF" fill-rule="nonzero">
            <g id="Group-2" transform="translate(41.606508, 204.000000)">
                <g id="Group" transform="translate(108.393492, 97.000000)">
                    <path d="M29.9959339,59.9918679 C13.4296371,59.9918679 1.70530257e-13,46.5622308 1.70530257e-13,29.9959339 C1.70530257e-13,13.4296371 13.4296371,-2.84217094e-13 29.9959339,-2.84217094e-13 C46.5622308,-2.84217094e-13 59.9918679,13.4296371 59.9918679,29.9959339 C59.9918679,46.5622308 46.5622308,59.9918679 29.9959339,59.9918679 Z M35.2816482,18.8530768 C35.8530796,18.2816454 36.1387911,17.6149854 36.1387911,16.8530768 C36.1387911,16.0911682 35.8530796,15.4245082 35.2816482,14.8530768 C34.7102168,14.2816454 34.0435568,13.9959339 33.2816482,13.9959339 C32.5197396,13.9959339 31.8530796,14.2816454 31.2816482,14.8530768 C30.7102168,15.4245082 30.4245054,16.0911682 30.4245054,16.8530768 C30.4245054,17.6149854 30.7102168,18.2816454 31.2816482,18.8530768 C31.8530796,19.4245082 32.5197396,19.7102196 33.2816482,19.7102196 C34.0435568,19.7102196 34.7102168,19.4245082 35.2816482,18.8530768 Z M33.2816482,28.2816482 L40.7102196,28.2816482 L40.7102196,25.4245054 L35.5673625,25.4245054 L32.3530768,20.4959339 C31.7816454,19.6387868 31.0435575,19.2102196 30.1387911,19.2102196 C29.7102175,19.2102196 29.4006968,19.2340289 29.2102196,19.2816482 L21.2816482,21.9959339 L21.2816482,29.9959339 L24.1387911,29.9959339 L24.1387911,24.2816482 L27.0673625,23.1387911 L21.2816482,45.9959339 L24.1387911,45.9959339 L28.2102196,34.2816482 L31.7816482,39.1387911 L31.7816482,45.9959339 L34.4959339,45.9959339 L34.4959339,36.8530768 L30.4245054,29.9959339 L31.8530768,25.5673625 L33.2816482,28.2816482 Z" id="Combined-Shape"></path>
                </g>
            </g>
        </g>
    </g>
</svg>