<?xml version="1.0" encoding="UTF-8"?>
<svg width="61px" height="60px" viewBox="0 0 61 60" version="1.1" xmlns="http://www.w3.org/2000/svg" xmlns:xlink="http://www.w3.org/1999/xlink">
    <!-- Generator: Sketch 53.1 (72631) - https://sketchapp.com -->
    <title>Combined Shape</title>
    <desc>Created with Sketch.</desc>
    <g id="Page-1" stroke="none" stroke-width="1" fill="none" fill-rule="evenodd">
        <g id="Pixel-2-XL" transform="translate(-258.000000, -301.000000)" fill="#FFFFFF" fill-rule="nonzero">
            <g id="Group-2" transform="translate(41.606508, 204.000000)">
                <g id="Group" transform="translate(216.786983, 97.000000)">
                    <path d="M29.9959339,59.9918679 C13.4296371,59.9918679 1.70530257e-13,46.5622308 1.70530257e-13,29.9959339 C1.70530257e-13,13.4296371 13.4296371,-2.84217094e-13 29.9959339,-2.84217094e-13 C46.5622308,-2.84217094e-13 59.9918679,13.4296371 59.9918679,29.9959339 C59.9918679,46.5622308 46.5622308,59.9918679 29.9959339,59.9918679 Z M30.9334339,30.9334339 L29.0584339,30.9334339 L29.0584339,30.4646839 L16.8709339,30.4646839 L16.8709339,40.7771839 C16.8709339,41.0896855 17.0271824,41.2459339 17.3396839,41.2459339 L42.6521839,41.2459339 C42.9646855,41.2459339 43.1209339,41.0896855 43.1209339,40.7771839 L43.1209339,30.4646839 L30.9334339,30.4646839 L30.9334339,30.9334339 Z M42.6521839,23.4334339 L35.6209339,23.4334339 L35.6209339,21.6170277 C35.5818712,20.7967111 35.2889054,20.1131242 34.7420277,19.5662464 C34.1951499,19.0193687 33.492032,18.7459339 32.6326527,18.7459339 L27.3592152,18.7459339 C26.4998359,18.7459339 25.7967179,19.0193687 25.2498402,19.5662464 C24.7029624,20.1131242 24.4099966,20.7967111 24.3709339,21.6170277 L24.3709339,23.4334339 L17.3396839,23.4334339 C17.0271824,23.4334339 16.8709339,23.5896824 16.8709339,23.9021839 L16.8709339,29.5271839 L29.0584339,29.5271839 L29.0584339,29.0584339 L30.9334339,29.0584339 L30.9334339,29.5271839 L43.1209339,29.5271839 L43.1209339,23.9021839 C43.1209339,23.5896824 42.9646855,23.4334339 42.6521839,23.4334339 Z M33.7459339,21.7342152 L33.7459339,23.4334339 L26.2459339,23.4334339 L26.2459339,21.7342152 C26.2459339,21.4607763 26.3631203,21.2068726 26.5974964,20.9724964 C26.8318726,20.7381203 27.0857763,20.6209339 27.3592152,20.6209339 L32.6326527,20.6209339 C32.9060915,20.6209339 33.1599953,20.7381203 33.3943714,20.9724964 C33.6287476,21.2068726 33.7459339,21.4607763 33.7459339,21.7342152 Z" id="Combined-Shape"></path>
                </g>
            </g>
        </g>
    </g>
</svg>