<?xml version="1.0" encoding="UTF-8"?>
<svg width="61px" height="60px" viewBox="0 0 61 60" version="1.1" xmlns="http://www.w3.org/2000/svg" xmlns:xlink="http://www.w3.org/1999/xlink">
    <!-- Generator: Sketch 53.1 (72631) - https://sketchapp.com -->
    <title>Combined Shape</title>
    <desc>Created with Sketch.</desc>
    <g id="Page-1" stroke="none" stroke-width="1" fill="none" fill-rule="evenodd">
        <g id="Pixel-2-XL" transform="translate(-41.000000, -204.000000)" fill="#FFFFFF" fill-rule="nonzero">
            <g id="Group-2" transform="translate(41.606508, 204.000000)">
                <g id="Group">
                    <path d="M29.9959339,59.9918679 C13.4296371,59.9918679 1.70530257e-13,46.5622308 1.70530257e-13,29.9959339 C1.70530257e-13,13.4296371 13.4296371,-5.68434189e-14 29.9959339,-5.68434189e-14 C46.5622308,-5.68434189e-14 59.9918679,13.4296371 59.9918679,29.9959339 C59.9918679,46.5622308 46.5622308,59.9918679 29.9959339,59.9918679 Z M29.9959339,14.9959339 L12.4959339,23.7459339 L14.9959339,25.3865589 L14.9959339,41.2459339 L17.4959339,42.4959339 L17.4959339,27.0271839 L29.9959339,34.9959339 L40.3084339,28.3553089 L47.4959339,23.6678089 L29.9959339,14.9959339 Z M40.4646839,29.9959339 L29.9959339,36.8709339 L19.4490589,29.9959339 L18.7459339,36.4021839 C18.9021847,36.5063511 19.5401992,36.9620757 20.6599964,37.7693714 C21.7797937,38.5766671 22.8735328,39.37093 23.9412464,40.1521839 C25.0089601,40.9334378 26.1417613,41.7928042 27.3396839,42.7303089 C28.5376066,43.6678136 29.4230144,44.4230144 29.9959339,44.9959339 C30.5688535,44.4230144 31.4542613,43.6678136 32.6521839,42.7303089 C33.8501066,41.7928042 34.9829078,40.9334378 36.0506214,40.1521839 C37.1183351,39.37093 38.2120742,38.5766671 39.3318714,37.7693714 C40.4516687,36.9620757 41.0896831,36.5063511 41.2459339,36.4021839 L40.4646839,29.9959339 Z" id="Combined-Shape"></path>
                </g>
            </g>
        </g>
    </g>
</svg>