<?xml version="1.0" encoding="UTF-8"?>
<svg width="60px" height="60px" viewBox="0 0 60 60" version="1.1" xmlns="http://www.w3.org/2000/svg" xmlns:xlink="http://www.w3.org/1999/xlink">
    <!-- Generator: Sketch 53.1 (72631) - https://sketchapp.com -->
    <title>Combined Shape</title>
    <desc>Created with Sketch.</desc>
    <g id="Page-1" stroke="none" stroke-width="1" fill="none" fill-rule="evenodd">
        <g id="Pixel-2-XL" transform="translate(-150.000000, -398.000000)" fill="#FFFFFF" fill-rule="nonzero">
            <g id="Group-2" transform="translate(41.606508, 204.000000)">
                <g id="Group" transform="translate(108.393492, 194.000000)">
                    <path d="M29.9959339,59.9918679 C13.4296371,59.9918679 1.70530257e-13,46.5622308 1.70530257e-13,29.9959339 C1.70530257e-13,13.4296371 13.4296371,-2.84217094e-13 29.9959339,-2.84217094e-13 C46.5622308,-2.84217094e-13 59.9918679,13.4296371 59.9918679,29.9959339 C59.9918679,46.5622308 46.5622308,59.9918679 29.9959339,59.9918679 Z M39.4921875,24.3709339 L35.859375,24.3709339 C34.8437449,23.1990531 34.1308614,22.4373419 33.7207031,22.0857777 C33.3105448,21.7342134 32.9492203,21.5584339 32.6367188,21.5584339 L27.4804688,21.5584339 C27.1679672,21.5584339 26.8066427,21.7342134 26.3964844,22.0857777 C25.9863261,22.4373419 25.2734426,23.1990531 24.2578125,24.3709339 L23.4960938,24.3709339 L23.4960938,23.4334339 L21.5039063,23.4334339 L21.5039063,24.3709339 L20.7421875,24.3709339 C20.1953098,24.3709339 19.7265645,24.5467134 19.3359375,24.8982777 C18.9453105,25.2498419 18.75,25.6795251 18.75,26.1873402 L18.75,36.4998402 C18.75,37.0076552 18.9453105,37.4568695 19.3359375,37.8474964 C19.7265645,38.2381234 20.1953098,38.4334339 20.7421875,38.4334339 L39.4921875,38.4334339 C40.0000025,38.4334339 40.4199202,38.2478889 40.7519531,37.8767933 C41.083986,37.5056977 41.25,37.0467179 41.25,36.4998402 L41.25,26.1873402 C41.25,25.6404624 41.083986,25.2010137 40.7519531,24.8689808 C40.4199202,24.5369479 40.0000025,24.3709339 39.4921875,24.3709339 Z M26.4257813,34.6248402 C25.4492139,33.6482728 24.9609375,32.4764095 24.9609375,31.1092152 C24.9609375,29.7420208 25.4589794,28.5701576 26.4550781,27.5935902 C27.4511769,26.6170228 28.6328057,26.1287464 30,26.1287464 C31.3671943,26.1287464 32.5488231,26.6170228 33.5449219,27.5935902 C34.5410206,28.5701576 35.0390625,29.7420208 35.0390625,31.1092152 C35.0390625,32.4764095 34.5410206,33.6482728 33.5449219,34.6248402 C32.5488231,35.6014076 31.3671943,36.0896839 30,36.0896839 C28.6328057,36.0896839 27.4414113,35.6014076 26.4257813,34.6248402 Z M36.6210938,27.2420277 L35.625,27.2420277 L35.625,26.2459339 L36.6210938,26.2459339 L36.6210938,27.2420277 Z M27.0703125,28.2967152 C26.2890586,29.0779691 25.8984375,30.0154597 25.8984375,31.1092152 C25.8984375,32.2029706 26.2988241,33.1502268 27.0996094,33.9510121 C27.9003946,34.7517973 28.8671818,35.1521839 30,35.1521839 C31.1328182,35.1521839 32.0996054,34.7517973 32.9003906,33.9510121 C33.7011759,33.1502268 34.1015625,32.2029706 34.1015625,31.1092152 C34.1015625,30.0154597 33.7011759,29.0682036 32.9003906,28.2674183 C32.0996054,27.466633 31.1328182,27.0662464 30,27.0662464 C28.8671818,27.0662464 27.8906291,27.4763986 27.0703125,28.2967152 Z M28.6523438,32.4568714 C28.3007795,32.0662445 28.125,31.6170302 28.125,31.1092152 C28.125,30.6014001 28.3007795,30.1619514 28.6523438,29.7908558 C29.003908,29.4197602 29.4531223,29.2342152 30,29.2342152 C30.5468777,29.2342152 30.996092,29.4197602 31.3476563,29.7908558 C31.6992205,30.1619514 31.875,30.6014001 31.875,31.1092152 C31.875,31.6170302 31.6992205,32.0564789 31.3476563,32.4275746 C30.996092,32.7986702 30.5468777,32.9842152 30,32.9842152 C29.4531223,32.9842152 29.003908,32.8084357 28.6523438,32.4568714 Z" id="Combined-Shape"></path>
                </g>
            </g>
        </g>
    </g>
</svg>