<?xml version="1.0" encoding="UTF-8"?>
<svg width="60px" height="141px" viewBox="0 0 60 141" version="1.1" xmlns="http://www.w3.org/2000/svg" xmlns:xlink="http://www.w3.org/1999/xlink">
    <!-- Generator: Sketch 53.1 (72631) - https://sketchapp.com -->
    <title>Group 2</title>
    <desc>Created with Sketch.</desc>
    <g id="Page-1" stroke="none" stroke-width="1" fill="none" fill-rule="evenodd">
        <g id="Pixel-2-XL" transform="translate(-29.000000, -346.000000)">
            <g id="Group-5" transform="translate(0.000000, 330.000000)">
                <g id="Group-2" transform="translate(29.000000, 16.000000)">
                    <path d="M30.5307422,57.9844439 L59.1664998,142.831133 L4.54747351e-13,142.831133 L28.6357576,57.9844439 C28.8123665,57.4611584 29.379743,57.1801214 29.9030285,57.3567303 C30.1987621,57.4565404 30.4309321,57.6887103 30.5307422,57.9844439 Z" id="Triangle" fill="#B48080" transform="translate(29.583250, 99.004096) rotate(180.000000) translate(-29.583250, -99.004096) "></path>
                    <path d="M13.2652382,57.3373412 L41.5076855,141.018667 L4.54747351e-13,136.328569 L11.3279178,57.5148515 C11.4064904,56.9681846 11.9133472,56.5887191 12.4600142,56.6672917 C12.8332934,56.7209432 13.1446448,56.9800274 13.2652382,57.3373412 Z" id="Triangle" fill="#AA7777" transform="translate(20.753843, 98.097863) rotate(180.000000) translate(-20.753843, -98.097863) "></path>
                    <path d="M30.507304,47.2056493 C45.552601,47.2056493 57.7492241,45.0786599 57.7492241,30.0333629 C57.7492241,14.9880659 45.552601,2.79144288 30.507304,2.79144288 C15.4620071,2.79144288 3.26538403,14.9880659 3.26538403,30.0333629 C3.26538403,45.0786599 15.4620071,47.2056493 30.507304,47.2056493 Z" id="Oval" fill="#8B4B47"></path>
                    <g id="Group-3" transform="translate(7.397848, 0.374178)" fill="#FFFFFF">
                        <polygon id="Rectangle" points="9.94291304 7.30911859 13.7964155 7.30911859 13.7964155 10.8212148 9.94291304 12.8141221"></polygon>
                        <polygon id="Rectangle" points="30.1536635 14.1801882 34.0071659 14.1801882 34.0071659 17.6922844 30.1536635 19.6851917"></polygon>
                        <polygon id="Rectangle" transform="translate(17.315691, 2.752502) rotate(-78.000000) translate(-17.315691, -2.752502) " points="15.38894 3.18337171e-11 19.2424424 3.18349394e-11 19.2424424 3.51209617 15.38894 5.50500351"></polygon>
                        <polygon id="Rectangle" transform="translate(5.303344, 14.600186) rotate(38.000000) translate(-5.303344, -14.600186) " points="4.33996885 13.0863099 6.26672007 13.0863099 6.26672007 15.0179628 4.33996885 16.1140619"></polygon>
                        <polygon id="Rectangle" transform="translate(17.315691, 18.666487) rotate(38.000000) translate(-17.315691, -18.666487) " points="16.3523156 17.1526114 18.2790668 17.1526114 18.2790668 19.0842643 16.3523156 20.1803633"></polygon>
                        <polygon id="Rectangle" transform="translate(20.408638, 12.814122) rotate(38.000000) translate(-20.408638, -12.814122) " points="19.4452627 11.3002461 21.3720139 11.3002461 21.3720139 13.231899 19.4452627 14.3279981"></polygon>
                        <polygon id="Rectangle" transform="translate(30.153663, 4.312259) rotate(-33.000000) translate(-30.153663, -4.312259) " points="29.6719757 3.55532057 30.6353513 3.55532057 30.6353513 4.52114701 29.6719757 5.06919653"></polygon>
                        <polygon id="Rectangle" transform="translate(26.058666, 10.958788) rotate(-33.000000) translate(-26.058666, -10.958788) " points="25.5769786 10.2018499 26.5403542 10.2018499 26.5403542 11.1676764 25.5769786 11.7157259"></polygon>
                        <polygon id="Rectangle" transform="translate(8.768388, 17.812403) rotate(38.000000) translate(-8.768388, -17.812403) " points="8.26569194 17.022453 9.27108349 17.022453 9.27108349 18.0304022 8.26569194 18.602354"></polygon>
                        <polygon id="Rectangle" transform="translate(1.336364, 20.617172) rotate(38.000000) translate(-1.336364, -20.617172) " points="0.833668668 19.8272211 1.83906022 19.8272211 1.83906022 20.8351704 0.833668668 21.4071222"></polygon>
                        <polygon id="Rectangle" transform="translate(42.794154, 19.598467) rotate(38.000000) translate(-42.794154, -19.598467) " points="41.8307784 18.0845913 43.7575296 18.0845913 43.7575296 20.0162442 41.8307784 21.1123432"></polygon>
                        <polygon id="Rectangle" transform="translate(46.259197, 22.810685) rotate(38.000000) translate(-46.259197, -22.810685) " points="45.7565015 22.0207343 46.7618931 22.0207343 46.7618931 23.0286836 45.7565015 23.6006353"></polygon>
                        <polygon id="Rectangle" transform="translate(46.259197, 31.010345) rotate(38.000000) translate(-46.259197, -31.010345) " points="45.7565015 30.2203945 46.7618931 30.2203945 46.7618931 31.2283438 45.7565015 31.8002955"></polygon>
                    </g>
                    <path d="M59.1664998,53.129067 C59.1664998,33.4070978 49.3053243,23.5461131 29.5829735,23.5461131 C0,23.5461131 0,53.129067 0,53.129067 C0,53.129067 19.7221666,53.129067 59.1664998,53.129067 Z" id="Oval" fill="#FFFFFF"></path>
                    <g id="Group" transform="translate(0.000917, 52.864567)" fill="#FFFFFF">
                        <circle id="Oval" cx="6.14397713" cy="19.9252266" r="6.14397713"></circle>
                        <rect id="Rectangle" x="0" y="0" width="12.2879543" height="20.3348251"></rect>
                    </g>
                </g>
            </g>
        </g>
    </g>
</svg>