<?xml version="1.0" encoding="UTF-8"?>
<svg width="61px" height="60px" viewBox="0 0 61 60" version="1.1" xmlns="http://www.w3.org/2000/svg" xmlns:xlink="http://www.w3.org/1999/xlink">
    <!-- Generator: Sketch 53.1 (72631) - https://sketchapp.com -->
    <title>Combined Shape</title>
    <desc>Created with Sketch.</desc>
    <g id="Page-1" stroke="none" stroke-width="1" fill="none" fill-rule="evenodd">
        <g id="Pixel-2-XL" transform="translate(-41.000000, -398.000000)" fill="#FFFFFF" fill-rule="nonzero">
            <g id="Group-2" transform="translate(41.606508, 204.000000)">
                <g id="Group" transform="translate(0.000000, 194.000000)">
                    <path d="M29.9959339,59.9918679 C13.4296371,59.9918679 1.70530257e-13,46.5622308 1.70530257e-13,29.9959339 C1.70530257e-13,13.4296371 13.4296371,-2.84217094e-13 29.9959339,-2.84217094e-13 C46.5622308,-2.84217094e-13 59.9918679,13.4296371 59.9918679,29.9959339 C59.9918679,46.5622308 46.5622308,59.9918679 29.9959339,59.9918679 Z M30.4646839,33.1014027 C30.4646839,32.2029607 31.2459261,31.1287527 32.8084339,29.8787464 C33.2771863,29.5271822 33.7068695,29.1560921 34.0974964,28.7654652 C35.1131265,27.7107724 35.6209339,26.3240675 35.6209339,24.6053089 L35.6209339,24.3709339 C35.6209339,23.1209277 34.9959402,20.6209527 33.7459339,16.8709339 L26.2459339,16.8709339 C24.9959277,20.6209527 24.3709339,23.1209277 24.3709339,24.3709339 L24.3709339,24.6053089 C24.3709339,26.3240675 24.8787413,27.7107724 25.8943714,28.7654652 C26.2849984,29.1560921 26.7146816,29.5271822 27.1834339,29.8787464 C28.7459417,31.1287527 29.5271839,32.2029607 29.5271839,33.1014027 L29.5271839,42.1834339 L25.3084339,42.1834339 L25.3084339,43.1209339 L34.6834339,43.1209339 L34.6834339,42.1834339 L30.4646839,42.1834339 L30.4646839,33.1014027 Z M26.8904652,17.8084339 L33.1014027,17.8084339 C33.8826566,20.3475091 34.370933,22.2224904 34.5662464,23.4334339 L25.4256214,23.4334339 C25.6209349,22.2224904 26.1092113,20.3475091 26.8904652,17.8084339 Z" id="Combined-Shape"></path>
                </g>
            </g>
        </g>
    </g>
</svg>