<?xml version="1.0" encoding="UTF-8"?>
<svg width="61px" height="60px" viewBox="0 0 61 60" version="1.1" xmlns="http://www.w3.org/2000/svg" xmlns:xlink="http://www.w3.org/1999/xlink">
    <!-- Generator: Sketch 53.1 (72631) - https://sketchapp.com -->
    <title>Combined Shape</title>
    <desc>Created with Sketch.</desc>
    <g id="Page-1" stroke="none" stroke-width="1" fill="none" fill-rule="evenodd">
        <g id="Pixel-2-XL" transform="translate(-41.000000, -301.000000)" fill="#FFFFFF" fill-rule="nonzero">
            <g id="Group-2" transform="translate(41.606508, 204.000000)">
                <g id="Group" transform="translate(0.000000, 97.000000)">
                    <path d="M29.9959339,59.9918679 C13.4296371,59.9918679 1.70530257e-13,46.5622308 1.70530257e-13,29.9959339 C1.70530257e-13,13.4296371 13.4296371,-2.84217094e-13 29.9959339,-2.84217094e-13 C46.5622308,-2.84217094e-13 59.9918679,13.4296371 59.9918679,29.9959339 C59.9918679,46.5622308 46.5622308,59.9918679 29.9959339,59.9918679 Z M41.466944,33.7470414 C36.0260893,29.3608754 30.9535387,34.969141 30.9535387,34.969141 C31.4892536,33.495925 31.9077809,31.9055213 32.1756383,30.2314122 C32.1756383,30.2314122 40.5964073,31.9222624 40.8475237,23.7358687 C35.2727402,21.8106432 32.5104602,27.2514979 32.5104602,27.2514979 C32.5439423,26.6655597 32.5439423,25.3095313 32.5104602,25.2090848 C32.5104602,25.2090848 36.3776523,17.9099689 28.7604557,15.2816176 C24.5919239,20.8731421 31.0874674,25.3764957 31.0874674,25.3764957 C31.0874674,25.4267189 30.9870208,27.6198019 30.8865743,28.6410085 C30.8865743,28.6410085 28.8441611,21.0238119 21.5617864,23.9535029 C22.1644657,31.2861009 30.7024223,29.9468136 30.7024223,29.9468136 C30.4178237,31.7046282 29.9825554,33.3285141 29.3798761,34.8184712 C28.2079997,32.7258348 25.1443799,29.293911 18.4814256,32.03945 C21.1097769,38.7693688 25.8475058,38.0327608 28.3586695,37.0617775 C26.1153632,41.1800859 22.6834395,43.7749551 18.749283,43.7916962 C18.3307558,43.7916962 17.9959339,44.1097769 17.9959339,44.5283042 C17.9959339,44.9468315 18.3307558,45.2816533 18.749283,45.2816533 C23.4702708,45.2649122 27.5550971,42.0506227 30.0327786,37.0450364 C30.0327786,37.0450364 38.1019847,42.100846 41.466944,33.7470414 Z" id="Combined-Shape"></path>
                </g>
            </g>
        </g>
    </g>
</svg>