<?xml version="1.0" encoding="UTF-8"?>
<svg width="60px" height="60px" viewBox="0 0 60 60" version="1.1" xmlns="http://www.w3.org/2000/svg" xmlns:xlink="http://www.w3.org/1999/xlink">
    <!-- Generator: Sketch 53.1 (72631) - https://sketchapp.com -->
    <title>Combined Shape</title>
    <desc>Created with Sketch.</desc>
    <g id="Page-1" stroke="none" stroke-width="1" fill="none" fill-rule="evenodd">
        <g id="Pixel-2-XL" transform="translate(-18.000000, -78.000000)" fill="#FFFFFF" fill-rule="nonzero">
            <path d="M47.9959339,137.995934 C31.4296371,137.995934 18,124.566297 18,108 C18,91.4337031 31.4296371,78.0040661 47.9959339,78.0040661 C64.5622308,78.0040661 77.9918679,91.4337031 77.9918679,108 C77.9918679,124.566297 64.5622308,137.995934 47.9959339,137.995934 Z M58.921875,108.078125 C58.9739586,107.817707 59,107.479169 59,107.0625 C59,106.645831 58.9869793,106.333334 58.9609375,106.125 C58.9348957,105.916666 58.8567715,105.773438 58.7265625,105.695312 C58.5963535,105.617187 58.4791672,105.565104 58.375,105.539062 C58.2708328,105.513021 58.0625016,105.5 57.75,105.5 L51.8125,105.5 C52.4375031,104.406245 52.75,103.442712 52.75,102.609375 C52.75,101.567703 52.0078199,100.356778 50.5234375,98.9765625 C49.0390551,97.5963473 48.296875,96.5156289 48.296875,95.734375 C48.296875,95.5781242 48.5312477,94.666675 49,93 C47.9583281,93.260418 47.085941,93.8593703 46.3828125,94.796875 C45.679684,95.7343797 45.328125,96.7499945 45.328125,97.84375 C45.328125,98.8854219 45.6927047,99.757809 46.421875,100.460937 C47.1510453,101.164066 47.8802047,101.80208 48.609375,102.375 C49.3385453,102.94792 49.703125,103.624996 49.703125,104.40625 C49.703125,104.614584 49.6510422,104.979164 49.546875,105.5 L45.171875,105.5 C45.2239586,105.343749 45.25,105.109377 45.25,104.796875 C45.25,104.171872 44.7421926,103.442712 43.7265625,102.609375 C42.7109324,101.776037 42.203125,101.125002 42.203125,100.65625 C42.203125,100.187498 42.2812492,99.6406281 42.4375,99.015625 C41.8645805,99.2239594 41.356773,99.6015598 40.9140625,100.148437 C40.471352,100.695315 40.25,101.281247 40.25,101.90625 C40.25,102.687504 40.7057246,103.403643 41.6171875,104.054687 C42.5286504,104.705732 43.0364578,105.187498 43.140625,105.5 L35.25,105.5 C34.7291641,105.5 34.3906258,105.578124 34.234375,105.734375 C34.0781242,105.890626 34,106.33333 34,107.0625 C34,109.354178 34.7291594,112.244774 36.1875,115.734375 C37.2812555,118.338555 38.8958227,120.578116 41.03125,122.453125 C41.3958352,122.81771 41.8906219,123 42.515625,123 L50.484375,123 C51.1093781,123 51.6041648,122.81771 51.96875,122.453125 C53.1145891,121.411453 53.9479141,120.552087 54.46875,119.875 C55.0416695,120.083334 55.4322906,120.213541 55.640625,120.265625 C56.2656281,120.421876 56.9166633,120.5 57.59375,120.5 C59.5729266,120.5 61.1614523,119.822923 62.359375,118.46875 C63.4531305,117.218744 64,115.812508 64,114.25 C64,112.739576 63.518234,111.398443 62.5546875,110.226562 C61.591141,109.054682 60.3802156,108.338543 58.921875,108.078125 Z M57.59375,118 C56.8645797,118 56.2916687,117.895834 55.875,117.6875 C56.2916687,116.854162 56.6041656,116.203127 56.8125,115.734375 C57.5416703,113.963533 58.0885398,112.2448 58.453125,110.578125 C59.3385461,110.734376 60.0677055,111.164059 60.640625,111.867187 C61.2135445,112.570316 61.5,113.364579 61.5,114.25 C61.5,115.239588 61.148441,116.111975 60.4453125,116.867187 C59.742184,117.6224 58.7916727,118 57.59375,118 Z" id="Combined-Shape"></path>
        </g>
    </g>
</svg>